<svg width="420" height="23" viewBox="0 0 420 23" fill="none" xmlns="http://www.w3.org/2000/svg">
<path d="M0.000244141 11.6091L193.5 12.0024" stroke="#7E8B9E" stroke-width="0.795144"/>
<path d="M210.04 11.4421C210.04 12.3739 209.869 13.1751 209.528 13.8455C209.188 14.5131 208.72 15.0273 208.126 15.3881C207.536 15.7461 206.864 15.9251 206.111 15.9251C205.355 15.9251 204.68 15.7461 204.087 15.3881C203.496 15.0273 203.03 14.5117 202.689 13.8413C202.348 13.1708 202.178 12.3711 202.178 11.4421C202.178 10.5103 202.348 9.71058 202.689 9.04297C203.03 8.37252 203.496 7.85831 204.087 7.50036C204.68 7.13956 205.355 6.95916 206.111 6.95916C206.864 6.95916 207.536 7.13956 208.126 7.50036C208.72 7.85831 209.188 8.37252 209.528 9.04297C209.869 9.71058 210.04 10.5103 210.04 11.4421ZM208.736 11.4421C208.736 10.7319 208.621 10.1339 208.391 9.64808C208.163 9.15945 207.851 8.79013 207.453 8.54013C207.058 8.28729 206.611 8.16087 206.111 8.16087C205.608 8.16087 205.159 8.28729 204.764 8.54013C204.369 8.79013 204.057 9.15945 203.827 9.64808C203.599 10.1339 203.486 10.7319 203.486 11.4421C203.486 12.1523 203.599 12.7518 203.827 13.2404C204.057 13.7262 204.369 14.0955 204.764 14.3484C205.159 14.5984 205.608 14.7234 206.111 14.7234C206.611 14.7234 207.058 14.5984 207.453 14.3484C207.851 14.0955 208.163 13.7262 208.391 13.2404C208.621 12.7518 208.736 12.1523 208.736 11.4421ZM211.681 15.8058V7.07848H214.792C215.468 7.07848 216.029 7.19496 216.475 7.42791C216.924 7.66087 217.26 7.98331 217.481 8.39524C217.703 8.80434 217.814 9.27735 217.814 9.81428C217.814 10.3484 217.701 10.8185 217.477 11.2248C217.255 11.6282 216.92 11.9421 216.471 12.1666C216.025 12.391 215.464 12.5032 214.788 12.5032H212.431V11.3697H214.669C215.095 11.3697 215.441 11.3086 215.708 11.1864C215.978 11.0643 216.176 10.8867 216.301 10.6538C216.426 10.4208 216.488 10.141 216.488 9.81428C216.488 9.48473 216.424 9.19922 216.297 8.95774C216.172 8.71627 215.974 8.53161 215.704 8.40377C215.437 8.27309 215.086 8.20774 214.652 8.20774H212.998V15.8058H211.681ZM215.99 11.8683L218.146 15.8058H216.646L214.532 11.8683H215.99Z" fill="#7E8B9E"/>
<path d="M226.5 11.6091L420 12.0024" stroke="#7E8B9E" stroke-width="0.795144"/>
</svg>
