<svg width="34" height="35" viewBox="0 0 34 35" fill="none" xmlns="http://www.w3.org/2000/svg">
<path d="M26.4989 18.1324C26.4989 17.4445 26.4323 16.7345 26.3214 16.0688H16.713V19.9964H22.2162C21.9943 21.2613 21.262 22.3708 20.1747 23.0809L23.4588 25.6327C25.3894 23.8353 26.4989 21.2169 26.4989 18.1324Z" fill="#4280EF"/>
<path d="M16.7147 28.0736C19.4663 28.0736 21.774 27.1638 23.4605 25.6105L20.1763 23.0808C19.2665 23.7021 18.0905 24.0572 16.7147 24.0572C14.0519 24.0572 11.8106 22.2598 10.9896 19.8632L7.6167 22.4595C9.34753 25.8989 12.8536 28.0736 16.7147 28.0736Z" fill="#34A353"/>
<path d="M10.9887 19.8411C10.5671 18.5763 10.5671 17.2005 10.9887 15.9356L7.61583 13.3172C6.17347 16.2019 6.17347 19.597 7.61583 22.4595L10.9887 19.8411Z" fill="#F6B704"/>
<path d="M16.7147 11.7418C18.157 11.7196 19.5772 12.2743 20.6201 13.2729L23.5271 10.3438C21.6853 8.61294 19.2444 7.68096 16.7147 7.70315C12.8536 7.70315 9.34753 9.87778 7.6167 13.3173L10.9896 15.9357C11.8106 13.517 14.0519 11.7418 16.7147 11.7418Z" fill="#E54335"/>
</svg>
